<?xml version="1.0" encoding="utf-8"?>
<!-- Generator: Adobe Illustrator 25.1.0, SVG Export Plug-In . SVG Version: 6.00 Build 0)  -->
<svg version="1.1" id="Layer_1" xmlns="http://www.w3.org/2000/svg" xmlns:xlink="http://www.w3.org/1999/xlink" x="0px" y="0px"
	 viewBox="0 0 407.29 95.19" style="enable-background:new 0 0 407.29 95.19;" xml:space="preserve">
<style type="text/css">
	.st0{fill-rule:evenodd;clip-rule:evenodd;fill:#F16022;}
	.st1{fill:#FFFFFF;}
</style>
<path class="st0" d="M356.3,32.71l4.25-2.39c7.02,4.03,14.11,8.15,21.2,12.25v26.27H356.3C356.3,56.83,356.3,44.82,356.3,32.71
	L356.3,32.71z M398.78,22.95v9.77l8.51,4.94v-9.79l-6.34-3.74L398.78,22.95z M322.27,85.88h-8.51v8.51h8.51V85.88z M313.76,27.87
	v49.49h8.51V32.71c12.76-7.31,25.52-14.69,38.28-22.09c7.02,4.1,14.11,8.22,21.2,12.33v9.77c-7.09-4.03-14.18-8.13-21.2-12.23
	c-4.25,2.46-8.49,4.92-12.76,7.38c0,16.5,0,33,0,49.49h42.48V47.5l8.51,4.92v33.45h-59.5c0-17.7,0-35.38,0-53.16l-8.51,4.94v56.73
	c25.54,0,50.99,0,76.53,0V47.5l-17.03-9.84V18.03c-9.94-5.76-19.85-11.43-29.72-17.17C344.97,9.8,329.36,18.85,313.76,27.87
	L313.76,27.87z"/>
<g>
	<path class="st1" d="M130.93,1.53l-27.52,92.86H86.17L66.67,24.11L45.96,94.39l-17.1,0.13L2.54,1.53H18.7l19.24,75.62L58.79,1.53
		h17.1l19.37,75.22l19.37-75.22H130.93z"/>
	<path class="st1" d="M158.72,13.83v27.25h32.07v12.43h-32.07v28.46h36.07v12.42h-51.3V1.4h51.3v12.42H158.72z"/>
	<path class="st1" d="M280.7,28.26c-2.41-4.63-5.75-8.13-10.02-10.49c-4.28-2.36-9.22-3.54-14.83-3.54
		c-6.15,0-11.62,1.38-16.43,4.14c-4.81,2.76-8.57,6.68-11.29,11.76c-2.72,5.08-4.08,10.96-4.08,17.64c0,6.68,1.36,12.58,4.08,17.7
		c2.72,5.12,6.48,9.06,11.29,11.82c4.81,2.76,10.29,4.14,16.43,4.14c8.28,0,15.01-2.31,20.17-6.95c5.17-4.63,8.33-10.91,9.49-18.84
		h-34.87V43.49h51.17v11.89c-0.98,7.21-3.54,13.85-7.68,19.91c-4.14,6.06-9.53,10.89-16.17,14.5c-6.64,3.61-14.01,5.41-22.11,5.41
		c-8.73,0-16.7-2.03-23.92-6.08c-7.21-4.05-12.94-9.69-17.17-16.9c-4.23-7.21-6.35-15.36-6.35-24.45c0-9.08,2.11-17.24,6.35-24.45
		c4.23-7.21,9.97-12.85,17.23-16.9c7.26-4.05,15.21-6.08,23.85-6.08c9.89,0,18.68,2.43,26.39,7.28c7.7,4.86,13.29,11.74,16.77,20.64
		H280.7z"/>
</g>
<g>
</g>
<g>
</g>
<g>
</g>
<g>
</g>
<g>
</g>
<g>
</g>
</svg>
